<mxfile host="65bd71144e">
    <diagram id="pIaEtrtLPv3HG8r1JEND" name="Page-1">
        <mxGraphModel dx="594" dy="499" grid="1" gridSize="10" guides="1" tooltips="1" connect="1" arrows="1" fold="1" page="1" pageScale="1" pageWidth="850" pageHeight="1100" math="0" shadow="0">
            <root>
                <mxCell id="0"/>
                <mxCell id="1" parent="0"/>
                <mxCell id="2" value="" style="rounded=0;whiteSpace=wrap;html=1;" parent="1" vertex="1">
                    <mxGeometry x="80" y="80" width="490" height="290" as="geometry"/>
                </mxCell>
                <mxCell id="3" value="Conversion of Fahrenheit to Celsius" style="rounded=0;whiteSpace=wrap;html=1;" parent="1" vertex="1">
                    <mxGeometry x="80" y="80" width="490" height="40" as="geometry"/>
                </mxCell>
                <mxCell id="4" value="Input degrees fahrenheit.." style="shape=partialRectangle;whiteSpace=wrap;html=1;top=0;left=0;fillColor=none;align=left;" parent="1" vertex="1">
                    <mxGeometry x="90" y="170" width="180" height="20" as="geometry"/>
                </mxCell>
                <mxCell id="6" value="Calculate" style="labelPosition=center;verticalLabelPosition=middle;align=center;html=1;shape=mxgraph.basic.button;dx=8.2;" parent="1" vertex="1">
                    <mxGeometry x="90" y="210" width="100" height="40" as="geometry"/>
                </mxCell>
                <mxCell id="7" value="&lt;span style=&quot;font-family: &amp;#34;helvetica&amp;#34; ; font-size: 12px ; font-style: normal ; font-weight: 400 ; letter-spacing: normal ; text-align: center ; text-indent: 0px ; text-transform: none ; word-spacing: 0px ; display: inline ; float: none&quot;&gt;&lt;font color=&quot;#000000&quot;&gt;Enter the values below....&lt;/font&gt;&lt;/span&gt;" style="text;whiteSpace=wrap;html=1;" vertex="1" parent="1">
                    <mxGeometry x="90" y="130" width="160" height="30" as="geometry"/>
                </mxCell>
                <mxCell id="8" value="&lt;span style=&quot;text-align: center&quot;&gt;Formula: (°F − 32) × 5/9 = 0°C&lt;/span&gt;" style="text;whiteSpace=wrap;html=1;" vertex="1" parent="1">
                    <mxGeometry x="90" y="290" width="180" height="30" as="geometry"/>
                </mxCell>
                <mxCell id="9" value="&lt;span style=&quot;text-align: center&quot;&gt;Degrees celsius is equal to:&lt;/span&gt;" style="text;whiteSpace=wrap;html=1;" vertex="1" parent="1">
                    <mxGeometry x="90" y="260" width="180" height="30" as="geometry"/>
                </mxCell>
            </root>
        </mxGraphModel>
    </diagram>
</mxfile>